<svg width="512" height="512" viewBox="0 0 512 512" fill="none" xmlns="http://www.w3.org/2000/svg">
<path d="M176.222 155.092C178.287 153.032 181.084 151.875 184 151.875C186.917 151.875 189.714 153.032 191.779 155.092L194.344 157.657L205.657 146.343L203.092 143.778C198.025 138.722 191.159 135.883 184 135.883C176.842 135.883 169.976 138.722 164.909 143.778L162.344 146.343L173.657 157.657L176.222 155.092Z" fill="#f1f1f1" id="id_109"></path>
<path d="M204.422 191.156L220.422 199.156L227.578 184.845L217.784 179.948L223.589 162.53L208.411 157.471L200.411 181.471C199.802 183.298 199.872 185.283 200.609 187.062C201.346 188.841 202.7 190.295 204.422 191.156V191.156Z" fill="#f1f1f1" id="id_110"></path>
<path d="M189.469 208.41L194.528 223.589C208.47 218.974 223.527 218.974 237.469 223.589L242.528 208.41C225.302 202.707 206.696 202.707 189.469 208.41V208.41Z" fill="#f1f1f1" id="id_111"></path>
<path d="M232.222 155.092C234.287 153.032 237.084 151.875 240 151.875C242.917 151.875 245.714 153.032 247.779 155.092L250.344 157.657L261.657 146.343L259.092 143.778C254.025 138.722 247.159 135.883 240 135.883C232.842 135.883 225.976 138.722 220.909 143.778L218.344 146.343L229.657 157.657L232.222 155.092Z" fill="#f1f1f1" id="id_112"></path>
<path d="M450.791 477.821L490.791 317.821C491.676 314.283 491.742 310.589 490.985 307.021C490.229 303.454 488.669 300.105 486.425 297.23C484.18 294.356 481.31 292.03 478.032 290.431C474.754 288.832 471.155 288 467.508 288H350.751C349.635 281.2 347.732 274.554 345.081 268.194L336.709 248.102L339.361 242.136C348.164 222.204 351.773 200.366 349.85 178.661C347.927 156.956 340.535 136.093 328.364 118.018L328.775 115.144C331.143 98.5825 329.015 81.6885 322.612 66.2318C316.21 50.775 305.769 37.3241 292.383 27.2878C284.123 21.0488 274.281 17.2491 263.971 16.3195C253.662 15.39 243.298 17.3677 234.055 22.0285L214.877 31.6174L193.039 27.2492C177.125 24.0676 160.598 27.3028 147.059 36.2502C133.519 45.1977 124.064 59.1325 120.751 75.0197C104.173 85.4369 91.3827 100.909 84.2702 119.152C77.1578 137.394 76.0998 157.44 81.2525 176.33L86.8475 196.847C86.3167 199.194 85.9978 201.584 85.8946 203.989L75.626 230.687C60.9345 268.592 61.3983 310.698 76.921 348.27L49.6885 402.735C46.4363 409.182 44.8984 416.358 45.2229 423.571C45.5475 430.785 47.7235 437.794 51.5415 443.923C52.4196 445.336 53.3788 446.698 54.4142 448H24C22.9494 448 21.9091 448.207 20.9385 448.609C19.9679 449.011 19.086 449.6 18.3431 450.343C17.6002 451.086 17.0109 451.968 16.6089 452.939C16.2069 453.909 16 454.95 16 456V472C16.0071 478.363 18.538 484.464 23.0373 488.963C27.5366 493.462 33.637 495.993 40 496H496V480H450.127C450.378 479.289 450.605 478.565 450.791 477.821ZM131.969 86.946C133.027 86.3416 133.933 85.5036 134.617 84.496C135.302 83.4883 135.747 82.3375 135.919 81.1316C136.795 75.0043 138.911 69.12 142.138 63.8385C145.365 58.5569 149.635 53.989 154.688 50.4142C159.741 46.8393 165.47 44.3326 171.524 43.0472C177.579 41.7619 183.832 41.725 189.901 42.9387L214.431 47.8449C216.176 48.1935 217.986 47.9509 219.578 47.1555L241.21 36.3391C247.798 33.0175 255.185 31.6081 262.533 32.2707C269.881 32.9332 276.896 35.6412 282.784 40.0876C293.874 48.4034 302.525 59.5482 307.83 72.355C313.134 85.1617 314.898 99.1592 312.936 112.882L312.081 118.869C311.79 120.906 312.294 122.976 313.49 124.65C324.821 140.59 331.816 159.2 333.788 178.657C335.76 198.114 332.642 217.749 324.74 235.638L320.689 244.751C320.248 245.745 320.013 246.819 320.001 247.907C319.988 248.994 320.197 250.073 320.615 251.077L330.311 274.347C332.148 278.751 333.549 283.324 334.493 288H305.298L280.411 279.704C275.629 278.115 271.47 275.06 268.524 270.973C265.578 266.886 263.995 261.974 264 256.936V239.957C273.934 232.513 281.998 222.858 287.552 211.757C293.107 200.656 295.999 188.413 296 176V155.777C296.025 148.343 293.967 141.051 290.059 134.728C286.151 128.404 280.549 123.302 273.889 120C266.158 116.115 259.885 109.842 256 102.112L247.155 84.4225C246.529 83.1693 245.584 82.1026 244.415 81.3292C243.247 80.5558 241.896 80.1029 240.497 80.0158C239.099 79.9287 237.702 80.2104 236.446 80.8328C235.191 81.4552 234.121 82.3964 233.344 83.5622L231.593 86.1882C227.946 91.6724 222.998 96.1689 217.191 99.2767C211.383 102.385 204.897 104.007 198.311 104H176C167.141 104.012 158.536 106.958 151.53 112.379C144.523 117.801 139.511 125.391 137.276 133.963L133.657 130.343C132.781 129.468 131.714 128.807 130.54 128.414C129.366 128.021 128.117 127.906 126.89 128.077C125.664 128.249 124.494 128.703 123.473 129.404C122.453 130.104 121.608 131.033 121.007 132.115L97.378 174.647L96.689 172.12C92.2968 156.021 93.3788 138.918 99.7649 123.501C106.151 108.083 117.479 95.2244 131.969 86.946V86.946ZM152 176V144C152.007 137.637 154.538 131.537 159.037 127.038C163.537 122.538 169.637 120.007 176 120H198.311C205.817 120.008 213.247 118.504 220.159 115.578C227.07 112.651 233.321 108.362 238.539 102.967L241.689 109.267C247.128 120.09 255.91 128.872 266.733 134.311C270.729 136.292 274.09 139.353 276.435 143.147C278.78 146.941 280.015 151.317 280 155.777V176C280.009 188.213 276.522 200.172 269.949 210.465C263.377 220.759 253.995 228.955 242.912 234.085C231.829 239.214 219.51 241.064 207.409 239.414C195.309 237.764 183.934 232.684 174.629 224.774L161.375 209.311C155.232 199.287 151.987 187.757 152 176V176ZM173.911 301.604C183.11 306.939 193.329 310.276 203.904 311.399L169.754 448H120.688C123.669 444.258 125.992 440.035 127.557 435.514L173.911 301.604ZM210.758 295.824C199.561 295.593 188.654 292.227 179.275 286.108L185.554 267.968C187.459 262.436 188.123 256.553 187.501 250.735C207.073 258.222 228.805 257.707 248 249.3V256.936C247.995 262.889 249.32 268.767 251.879 274.142C254.438 279.517 258.166 284.252 262.79 288H228.492C225.154 287.997 221.853 288.691 218.799 290.038C215.745 291.386 213.006 293.356 210.758 295.824V295.824ZM90.5596 236.431L93.3304 229.226L115.891 260.811C116.738 261.994 117.246 263.385 117.36 264.835C117.473 266.285 117.189 267.739 116.537 269.039L86.8546 328.403C77.8608 298.182 79.1641 265.83 90.5596 236.431V236.431ZM65.1519 435.511C62.7768 431.698 61.4232 427.339 61.2213 422.852C61.0194 418.364 61.976 413.901 63.999 409.89L130.847 276.194C132.804 272.294 133.658 267.933 133.317 263.583C132.975 259.233 131.452 255.059 128.911 251.511L106.266 219.809C103.64 216.11 102.111 211.745 101.854 207.216C101.598 202.686 102.624 198.176 104.816 194.204L129.548 149.686C132.849 154.896 134.013 161.178 132.796 167.225L128.155 190.431C127.917 191.621 127.953 192.849 128.26 194.023C128.567 195.197 129.136 196.285 129.926 197.207L148.549 218.934C152.61 225.29 157.542 231.044 163.202 236.028L165.976 239.265C168.696 242.451 170.538 246.292 171.32 250.408C172.102 254.524 171.796 258.773 170.434 262.735L112.437 430.281C110.808 434.988 107.877 439.136 103.984 442.244C100.092 445.353 95.3982 447.293 90.4474 447.841C85.4966 448.388 80.492 447.52 76.0146 445.338C71.5371 443.156 67.7705 439.748 65.1518 435.511L65.1519 435.511ZM32 472V464H165.754L161.754 480H40C37.879 479.998 35.8456 479.154 34.3458 477.654C32.8461 476.155 32.0024 474.121 32 472V472ZM178.246 480L220.731 310.06C221.162 308.328 222.16 306.791 223.567 305.692C224.974 304.594 226.708 303.998 228.492 304H467.508C468.724 304 469.923 304.277 471.016 304.81C472.108 305.343 473.065 306.118 473.813 307.077C474.562 308.035 475.081 309.151 475.334 310.34C475.586 311.53 475.563 312.761 475.269 313.94L435.269 473.94C434.838 475.672 433.839 477.21 432.433 478.308C431.026 479.406 429.292 480.002 427.508 480H178.246Z" fill="#f1f1f1" id="id_113"></path>
<path d="M328 352C320.089 352 312.355 354.346 305.777 358.741C299.199 363.136 294.072 369.384 291.045 376.693C288.017 384.002 287.225 392.044 288.769 399.804C290.312 407.563 294.122 414.69 299.716 420.284C305.31 425.878 312.437 429.688 320.196 431.231C327.956 432.775 335.998 431.983 343.307 428.955C350.616 425.928 356.864 420.801 361.259 414.223C365.654 407.645 368 399.911 368 392C367.988 381.395 363.77 371.228 356.271 363.729C348.772 356.23 338.605 352.012 328 352V352ZM328 416C323.253 416 318.613 414.592 314.666 411.955C310.72 409.318 307.643 405.57 305.827 401.184C304.01 396.799 303.535 391.973 304.461 387.318C305.387 382.662 307.673 378.386 311.029 375.029C314.386 371.673 318.662 369.387 323.318 368.461C327.973 367.535 332.799 368.01 337.184 369.827C341.57 371.643 345.318 374.72 347.955 378.666C350.592 382.613 352 387.253 352 392C351.993 398.363 349.462 404.463 344.963 408.963C340.463 413.462 334.363 415.993 328 416V416Z" fill="#f1f1f1" id="id_114"></path>
<path d="M392 80.4078V96H408V80.401C423.634 81.9648 438.456 88.1185 450.6 98.0873L442.344 106.343L453.657 117.657L461.913 109.401C471.882 121.545 478.036 136.366 479.599 152H464V168H479.599C478.036 183.634 471.882 198.455 461.913 210.599L453.657 202.343L442.344 213.657L450.6 221.913C438.456 231.882 423.634 238.035 408 239.599V224H392V239.604C382.107 238.642 372.485 235.819 363.642 231.282L356.359 245.528C369.861 252.455 384.826 256.046 400 256C415.086 255.998 429.959 252.441 443.413 245.617C456.867 238.793 468.523 228.894 477.437 216.724C486.351 204.553 492.271 190.453 494.717 175.567C497.163 160.681 496.067 145.428 491.517 131.045C486.967 116.662 479.091 103.554 468.529 92.7829C457.966 82.0123 445.014 73.8825 430.722 69.0528C416.43 64.2231 401.202 62.8295 386.271 64.985C371.34 67.1405 357.127 72.7844 344.785 81.459L353.998 94.541C365.227 86.6176 378.322 81.7474 392 80.4078V80.4078Z" fill="#f1f1f1" id="id_115"></path>
<path d="M405.657 165.657C406.4 164.914 406.989 164.032 407.392 163.061C407.794 162.091 408.001 161.051 408 160V112H392V156.687L362.344 186.343L373.657 197.657L405.657 165.657Z" fill="#f1f1f1" id="id_116"></path>
</svg>