<svg version="1.1" id="Layer_3" xmlns="http://www.w3.org/2000/svg" xmlns:xlink="http://www.w3.org/1999/xlink" x="0px" y="0px" viewBox="0 0 64 64" style="enable-background:new 0 0 64 64;" xml:space="preserve">
<g>
<path d="M48.386,40.51L38,37.265v-1.744c2.995-1.566,5.307-4.261,6.364-7.521H45c2.206,0,4-1.794,4-4s-1.794-4-4-4v-4.624
		C48.581,13.297,51,9.43,51,5V2c0-0.379-0.214-0.725-0.553-0.895C50.108,0.936,49.703,0.973,49.4,1.2
		c-2.374,1.78-5.301,2.574-8.252,2.233L29.213,2.057c-5.749-0.668-11.231,2.835-13.059,8.316c-0.786,2.359-0.84,4.868-0.157,7.257
		l0.858,3.005C15.744,21.346,15,22.585,15,24c0,2.206,1.794,4,4,4h0.636c1.057,3.26,3.369,5.955,6.364,7.521v1.744L15.614,40.51
		C12.256,41.56,10,44.628,10,48.146V62c0,0.552,0.448,1,1,1h42c0.552,0,1-0.448,1-1V48.146C54,44.628,51.744,41.56,48.386,40.51z
		 M38.787,39.606l-1.417,4.961l-3.682-1.841l3.591-3.591L38.787,39.606z M47,24c0,1.103-0.897,2-2,2h-0.17
		c0.102-0.654,0.17-1.318,0.17-2v-2C46.103,22,47,22.897,47,24z M17.92,17.081c-0.572-2-0.526-4.101,0.132-6.075
		c1.53-4.589,6.129-7.514,10.932-6.962L40.918,5.42C43.741,5.745,46.549,5.186,49,3.834V5c0,5.514-4.486,10-10,10h-6.113
		c1.596-1.199,2.961-2.719,3.981-4.504l-1.736-0.992C32.842,13.511,28.553,16,23.938,16H20c-0.552,0-1,0.448-1,1v3
		c-0.082,0-0.158,0.019-0.239,0.024L17.92,17.081z M19,26c-1.103,0-2-0.897-2-2s0.897-2,2-2v2c0,0.682,0.069,1.346,0.17,2H19z
		 M21,24v-6h2.938c1.851,0,3.653-0.354,5.332-1H39c1.404,0,2.747-0.255,4-0.7V24c0,6.065-4.935,11-11,11S21,30.065,21,24z M32,37
		c1.396,0,2.739-0.227,4-0.636v1.222l-4,4l-4-4v-1.222C29.261,36.773,30.604,37,32,37z M26.721,39.135l3.591,3.591l-3.682,1.841
		l-1.417-4.961L26.721,39.135z M12,48.146c0-2.639,1.692-4.94,4.21-5.727l7.093-2.217l1.735,6.072
		c0.082,0.286,0.287,0.521,0.559,0.641C25.726,46.972,25.863,47,26,47c0.153,0,0.307-0.035,0.447-0.105L31,44.618V61H19v-9h-2v9h-5
		V48.146z M52,61h-5v-9h-2v9H33V44.618l4.553,2.276C37.693,46.965,37.847,47,38,47c0.137,0,0.274-0.028,0.403-0.084
		c0.272-0.12,0.477-0.355,0.559-0.641l1.735-6.072l7.093,2.217c2.519,0.787,4.21,3.088,4.21,5.727V61z" id="id_108" style="fill: rgb(241, 241, 241);"></path>
<path d="M62.867,23.501c-0.243-0.421-0.753-0.605-1.209-0.441l-11,4c-0.289,0.105-0.513,0.336-0.608,0.628
		c-0.096,0.292-0.052,0.611,0.118,0.866l1.545,2.318l-4.42,4.42c-0.332,0.332-0.388,0.849-0.136,1.244
		C47.344,36.832,47.666,37,48,37c0.114,0,0.229-0.02,0.342-0.06l11-4c0.321-0.117,0.561-0.39,0.634-0.723
		c0.074-0.334-0.027-0.682-0.269-0.924l-2.226-2.226l5.159-4.299C63.014,24.457,63.109,23.923,62.867,23.501z M51.895,33.52
		l1.812-1.813c0.337-0.337,0.39-0.865,0.125-1.262l-1.294-1.94l4.425-1.609l-1.604,1.336c-0.216,0.18-0.346,0.442-0.359,0.723
		s0.093,0.554,0.292,0.752l1.89,1.89L51.895,33.52z" id="id_109" style="fill: rgb(241, 241, 241);"></path>
<path d="M16,37c0.334,0,0.656-0.168,0.843-0.463c0.252-0.396,0.195-0.913-0.136-1.244l-4.42-4.42l1.545-2.318
		c0.17-0.255,0.214-0.575,0.118-0.866c-0.096-0.292-0.32-0.523-0.608-0.628l-11-4c-0.456-0.164-0.966,0.02-1.209,0.441
		c-0.242,0.421-0.146,0.956,0.227,1.267l5.159,4.299l-2.226,2.226c-0.242,0.242-0.343,0.59-0.269,0.924
		c0.074,0.333,0.313,0.606,0.634,0.723l11,4C15.771,36.98,15.886,37,16,37z M6.817,31.597l1.89-1.89
		c0.199-0.199,0.305-0.472,0.292-0.752s-0.143-0.543-0.359-0.723l-1.604-1.336l4.425,1.609l-1.294,1.94
		c-0.265,0.396-0.212,0.925,0.125,1.262l1.812,1.813L6.817,31.597z" id="id_110" style="fill: rgb(241, 241, 241);"></path>
<path d="M35.445,23.832l3,2l1.109-1.664L37.803,23l1.752-1.168l-1.109-1.664l-3,2C35.167,22.354,35,22.666,35,23
		S35.167,23.646,35.445,23.832z" id="id_111" style="fill: rgb(241, 241, 241);"></path>
<path d="M29,23c0-0.334-0.167-0.646-0.445-0.832l-3-2l-1.109,1.664L26.197,23l-1.752,1.168l1.109,1.664l3-2
		C28.833,23.646,29,23.334,29,23z" id="id_112" style="fill: rgb(241, 241, 241);"></path>
<path d="M34,32h2c0-2.206-1.794-4-4-4s-4,1.794-4,4h2c0-1.103,0.897-2,2-2S34,30.897,34,32z" id="id_113" style="fill: rgb(241, 241, 241);"></path>
<path d="M42,50h-6c-0.552,0-1,0.448-1,1v5c0,0.431,0.275,0.812,0.684,0.949l3,1C38.787,57.983,38.893,58,39,58
		s0.213-0.017,0.316-0.051l3-1C42.725,56.812,43,56.431,43,56v-5C43,50.448,42.552,50,42,50z M41,55.279l-2,0.667l-2-0.667V52h4
		V55.279z" id="id_114" style="fill: rgb(241, 241, 241);"></path>
</g>
</svg>