<svg version="1.1" id="Capa_1" xmlns="http://www.w3.org/2000/svg" xmlns:xlink="http://www.w3.org/1999/xlink" x="0px" y="0px" viewBox="0 0 511.996 511.996" style="enable-background:new 0 0 511.996 511.996;" xml:space="preserve">
<g>
<g>
<path d="M452.499,149.389c-3.9-3.91-10.23-3.91-14.14,0c-3.9,3.9-3.9,10.23,0,14.14c3.91,3.9,10.24,3.9,14.14,0
			C456.409,159.619,456.409,153.289,452.499,149.389z" id="id_101" style="fill: rgb(125, 125, 125);"></path>
</g>
</g>
<g>
<g>
<path d="M73.638,161.249c-3.91-3.91-10.24-3.91-14.14,0c-3.91,3.9-3.91,10.24,0,14.14c3.9,3.91,10.23,3.91,14.14,0
			C77.538,171.489,77.538,165.149,73.638,161.249z" id="id_102" style="fill: rgb(125, 125, 125);"></path>
</g>
</g>
<g>
<g>
<path d="M509.068,149.392L395.931,36.248c-3.904-3.904-10.234-3.904-14.143,0c-10.335,10.335-59.301,59.301-69.296,69.297
			l-48.365,19.922l-65.984-9.425L130.21,48.11c-3.198-3.2-6.964-2.908-7.072-2.93c-2.652,0-5.195,1.054-7.071,2.929L2.927,161.248
			c-3.902,3.903-3.905,10.238,0.001,14.143l68.148,68.138l7.788,38.932l-16.243,16.243c-13.68,13.665-13.699,35.814-0.008,49.492
			c6.615,6.622,15.496,10.352,25.131,10.251c-0.094,9.086,3.31,18.2,10.226,25.116c6.826,6.82,15.788,10.229,24.751,10.229
			c0.128,0,0.255-0.008,0.383-0.009c-0.098,9.09,3.305,18.212,10.223,25.137c6.609,6.609,15.397,10.25,24.746,10.25
			c0.127,0,0.253-0.008,0.379-0.009c-0.093,9.083,3.311,18.197,10.228,25.113c13.647,13.635,35.852,13.642,49.499-0.003l3.537-3.537
			l17.67,17.678c13.679,13.678,35.824,13.693,49.503,0c6.919-6.919,10.323-16.039,10.224-25.128
			c0.126,0.001,0.252,0.009,0.378,0.009c8.964,0,17.931-3.411,24.76-10.234c6.908-6.915,10.309-16.026,10.215-25.109
			c9.621,0.105,18.512-3.621,25.132-10.247c6.919-6.919,10.323-16.039,10.224-25.128c0.126,0.001,0.252,0.009,0.378,0.009
			c8.964,0,17.931-3.411,24.76-10.234c13.641-13.653,13.639-35.858-0.003-49.499l-4.85-4.85l48.972-74.479l69.988-69.988
			C512.972,159.629,512.972,153.297,509.068,149.392z M24.142,168.318l98.996-98.996l14.143,14.143l-49.503,49.503
			c-3.905,3.905-3.905,10.237,0,14.143c3.906,3.905,10.236,3.905,14.143,0l49.503-49.503l27.862,27.862l-98.997,98.987
			L24.142,168.318z M77.1,312.51c-0.002,0.002-0.009,0.009-0.017,0.017C77.091,312.519,77.097,312.512,77.1,312.51z M97.963,334.062
			c-5.829,5.834-15.31,5.895-21.207-0.008c-5.864-5.859-5.867-15.339,0.002-21.203c0.018-0.018,0.033-0.033,0.049-0.049
			c0.021-0.021,0.041-0.041,0.059-0.059c0.011-0.011,0.021-0.021,0.031-0.031c0.74-0.74,4.723-4.722,21.077-21.076
			c5.857-5.864,15.344-5.867,21.213,0.004c5.871,5.87,5.849,15.36,0,21.208c-0.002,0.002-0.003,0.003-0.005,0.005L97.963,334.062z
			 M112.109,369.417c-5.846-5.846-5.846-15.365-0.003-21.214c0.002-0.002,0.005-0.005,0.007-0.007
			c0.002-0.002,0.003-0.003,0.005-0.005l21.206-21.197c0.002-0.002,0.003-0.003,0.005-0.005c0.001-0.001,0.002-0.002,0.003-0.004
			c5.857-5.855,15.344-5.857,21.205,0.004c5.859,5.859,5.858,15.359,0,21.217l-21.21,21.21
			C127.481,375.265,117.958,375.263,112.109,369.417z M168.676,404.778c-5.854,5.855-15.346,5.861-21.204,0.003
			c-5.849-5.854-5.851-15.374-0.003-21.221l21.214-21.214c5.857-5.864,15.344-5.867,21.213,0.004c5.848,5.847,5.872,15.336,0,21.208
			L168.676,404.778z M225.248,418.916l-21.21,21.21c-5.847,5.849-15.369,5.846-21.218,0.001c-5.847-5.847-5.847-15.361,0-21.208
			l21.22-21.22c5.826-5.826,15.34-5.868,21.201-0.008C231.057,403.52,231.178,412.975,225.248,418.916z M380.82,348.205
			c-5.855,5.847-15.37,5.85-21.217,0.006c-0.001-0.001-0.002-0.002-0.003-0.003l-10.61-10.61c-3.906-3.905-10.238-3.905-14.143,0
			c-3.905,3.905-3.905,10.237,0,14.142l10.61,10.609c5.847,5.847,5.847,15.361-0.003,21.211c-5.859,5.864-15.34,5.866-21.201,0.001
			c-0.002-0.002-0.005-0.005-0.007-0.007l-10.609-10.6c-3.909-3.904-10.239-3.901-14.143,0.006
			c-3.903,3.907-3.9,10.238,0.006,14.142l10.604,10.594c5.846,5.852,5.846,15.373,0.007,21.218
			c-5.854,5.848-15.372,5.851-21.221,0.003l-10.61-10.61c-3.906-3.905-10.238-3.905-14.143,0c-3.905,3.905-3.905,10.237,0,14.142
			l10.61,10.609c5.847,5.847,5.847,15.361-0.003,21.211c-5.861,5.866-15.347,5.865-21.214-0.002l-17.672-17.679l3.538-3.538
			c13.642-13.669,13.716-35.743-0.007-49.495c-6.916-6.915-16.028-10.318-25.111-10.225c0.096-9.777-3.722-18.607-10.24-25.125
			c-6.624-6.624-15.502-10.344-25.12-10.248c0.097-9.589-3.604-18.477-10.239-25.112c-6.621-6.619-15.498-10.337-25.111-10.24
			c0.106-9.688-3.683-18.553-10.24-25.109c-9.929-9.929-24.33-12.655-36.696-8.171l-5.489-27.442l105.819-105.81l30.745,4.392
			l-9.799,4.038c-1.22,0.503-2.328,1.242-3.262,2.175l-67.18,67.18c-13.645,13.645-13.645,35.847,0,49.492
			c13.688,13.686,35.809,13.692,49.504-0.002l24.733-24.744c3.907-3.901,10.257-3.902,14.152-0.004
			c18.863,18.861,46.483,22.176,68.3,11.729l66.029,66.029c0.018,0.018,0.036,0.037,0.055,0.055l10.578,10.578
			C386.664,332.838,386.663,342.357,380.82,348.205z M375.668,293.556l-54.957-54.957l7.069-7.068
			c3.905-3.905,3.905-10.237,0-14.142c-3.905-3.905-10.235-3.905-14.143,0c-6.217,6.015-8.228,8.795-13.18,12.09
			c-15.306,10.24-36.543,8.894-50.458-5.02c-11.689-11.691-30.723-11.694-42.434,0.001l-24.737,24.748
			c-5.872,5.871-15.345,5.875-21.219,0c-5.847-5.847-5.847-15.361,0-21.208l65.766-65.767l88.417-36.419L418.458,228.48
			L375.668,293.556z M431.29,213.026l-98.997-98.998l28.286-28.287l49.499,49.499c3.906,3.905,10.236,3.905,14.143,0
			c3.905-3.905,3.905-10.237,0-14.143l-49.499-49.499L388.86,57.46l98.997,98.998L431.29,213.026z" id="id_103" style="fill: rgb(125, 125, 125);"></path>
</g>
</g>
<g>
</g>
<g>
</g>
<g>
</g>
<g>
</g>
<g>
</g>
<g>
</g>
<g>
</g>
<g>
</g>
<g>
</g>
<g>
</g>
<g>
</g>
<g>
</g>
<g>
</g>
<g>
</g>
<g>
</g>
</svg>