<svg xmlns="http://www.w3.org/2000/svg" viewBox="0 0 64 64"><g id="Layer_46" data-name="Layer 46"><path d="M56,5H8a5,5,0,0,0-5,5V43.35a5,5,0,0,0,5,5H23L19.4,57H14.07a1,1,0,1,0,0,2H49.93a1,1,0,1,0,0-2H44.85L41.3,48.35H56a5,5,0,0,0,5-5V10A5,5,0,0,0,56,5ZM25.08,57a7.62,7.62,0,0,0,1.53-1.93,6.13,6.13,0,0,1,10.78,0A7.62,7.62,0,0,0,38.92,57Zm14.07-2.89a8.14,8.14,0,0,0-14.3,0,5.53,5.53,0,0,1-3.19,2.64l3.45-8.4h14l3.48,8.48A5.51,5.51,0,0,1,39.15,54.11ZM59,43.35a3,3,0,0,1-3,3H8a3,3,0,0,1-3-3V10A3,3,0,0,1,8,7H56a3,3,0,0,1,3,3Z" id="id_101" style="fill: rgb(125, 125, 125);"></path><path d="M36.38,25.15a8,8,0,1,0-8.76,0,14.49,14.49,0,0,0-9.76,10.36,1,1,0,0,0,.25,1.06,18.64,18.64,0,0,0,27.83-.06,1,1,0,0,0,.23-.9A14.51,14.51,0,0,0,36.38,25.15ZM26.05,18.52a6,6,0,1,1,6,5.95H32A6,6,0,0,1,26.05,18.52ZM32,40.78a16.65,16.65,0,0,1-12.09-5.21A12.53,12.53,0,0,1,32,26.47H32a12.54,12.54,0,0,1,12.06,9.1A16.63,16.63,0,0,1,32,40.78Z" id="id_102" style="fill: rgb(125, 125, 125);"></path></g></svg>