<?xml version="1.0" encoding="UTF-8" standalone="no"?> <svg id="Layer_2" data-name="Layer 2" xmlns="http://www.w3.org/2000/svg" viewBox="0 0 64 64"><path d="M54.87,33.16A6.85,6.85,0,0,0,53,20.47c2.3-4.86-2.42-10.54-7.62-9.09C46.57,3.46,36-.21,32,6.59,28-.22,17.43,3.46,18.62,11.38,13.42,9.93,8.7,15.61,11,20.47A6.85,6.85,0,0,0,9.13,33.16a6.46,6.46,0,0,0,2.3,11.55C8,50.41,13.9,57.52,20.13,55.08A6.46,6.46,0,0,0,32,58a6.46,6.46,0,0,0,11.87-2.9c6.23,2.44,12.18-4.67,8.7-10.37A6.46,6.46,0,0,0,54.87,33.16ZM26.55,59a4.45,4.45,0,0,1-2.44-8.17,1,1,0,0,0,.3-1.38c-1.39-1.71-3.78,2-4,3.29-5.15,3.2-10.67-3.54-6.49-8C15,44.57,18,43.69,17,42.11a1,1,0,0,0-1.4-.18A4.45,4.45,0,1,1,12.46,34a1.06,1.06,0,0,0,.92-1,1,1,0,0,0-1-1c-6.3-.19-6.42-9.3-.13-9.65.73,1.08,5.51,3.43,5.78,1.05a1,1,0,0,0-1-1,4.6,4.6,0,1,1,2.52-8.45c.64,1,2.92,3.89,4.08,2.25a1,1,0,0,0-.4-1.36,5.19,5.19,0,0,1-2.08-2.1A5.24,5.24,0,1,1,31,10.24V54.55A4.46,4.46,0,0,1,26.55,59ZM51.16,42.87a4.37,4.37,0,0,1-2.73-.94,1,1,0,0,0-1.4.18c-1,1.59,2,2.45,3.09,2.68,4.18,4.41-1.34,11.15-6.49,8-.27-1.26-2.65-5-4-3.29a1,1,0,0,0,.3,1.38A4.45,4.45,0,1,1,33,54.55V10.24a5.24,5.24,0,1,1,9.85,2.49,5.19,5.19,0,0,1-2.08,2.1,1,1,0,0,0-.4,1.36c1.13,1.64,3.45-1.23,4.08-2.25A4.6,4.6,0,1,1,47,22.39a1,1,0,0,0-1,1c.27,2.38,5,0,5.78-1.05,6.29.35,6.17,9.45-.13,9.65a1.16,1.16,0,0,0-.67.26,1,1,0,0,0-.06,1.41,1.23,1.23,0,0,0,.65.33A4.45,4.45,0,0,1,51.16,42.87Z"/></svg>