<svg xmlns="http://www.w3.org/2000/svg" viewBox="0 0 64 64"><g id="Layer_40" data-name="Layer 40"><path d="M57.08,36.11a19,19,0,0,1-5.36-11.36v0C51.44,12.45,40.14,2.16,27.87,3,7.57,3.94,1,27.22,13.29,42.05A41.9,41.9,0,0,1,17.4,60a1,1,0,0,0,.29.71,1,1,0,0,0,.71.29H41.73a1,1,0,0,0,1-.83l.83-4.79c.4-1.79,1.49-2.13,3.38-2.59,2.21-.54,5.24-1.28,4.81-6.65a.23.23,0,0,1,.15-.21A2.38,2.38,0,0,0,53,42.6a2.37,2.37,0,0,0,1.18-3.16h1.44A2,2,0,0,0,57.08,36.11Zm-3.14,1.33a1.85,1.85,0,0,0-1.55,2.82.38.38,0,0,1,0,.28.37.37,0,0,1-.08.15L48,41a1,1,0,0,0-.07,2l3.35.51a.35.35,0,0,1-.15.55,2.25,2.25,0,0,0-1.37,2.14c.74,7.21-6.68,2.27-8.16,8.77l-.7,4H19.39a44.31,44.31,0,0,0-4.34-17.9c-6-7.49-7.71-17-4.16-24.88C15.92,4.09,33.5,1.33,43,10.4a20.54,20.54,0,0,1,6.74,14.4,20.57,20.57,0,0,0,5.94,12.64Z" id="id_105" style="fill: rgb(241, 241, 241);"></path><path d="M39,21.21a3.67,3.67,0,0,0-2.36-3.42A3.55,3.55,0,0,0,33,13.35a3.86,3.86,0,0,0-6.71-2.47,3.87,3.87,0,0,0-6.72,2.47A3.55,3.55,0,0,0,16,17.79a3.68,3.68,0,0,0-1,6.22,3.52,3.52,0,0,0,1.18,5.58,3.83,3.83,0,0,0,4.31,5.11,3.52,3.52,0,0,0,5.87,1.52,3.51,3.51,0,0,0,5.86-1.52,3.83,3.83,0,0,0,4.31-5.11A3.52,3.52,0,0,0,37.64,24,3.64,3.64,0,0,0,39,21.21ZM23.79,35.28a1.5,1.5,0,0,1-1.47-1.82,1.54,1.54,0,0,1,.64-.93,1,1,0,0,0,.3-1.38c-1-1.27-2.4.41-2.74,1.41a1.82,1.82,0,0,1-2.25-2.77c.91-.17,2.32-1,1.55-2.05a1,1,0,0,0-1.4-.17,1.54,1.54,0,0,1-.92.31,1.5,1.5,0,0,1-.13-3,1,1,0,0,0,.91-1,1,1,0,0,0-1-1A1.68,1.68,0,0,1,17,19.56c.78.78,3.19,1.67,3.38-.07a1,1,0,0,0-1-1,1.58,1.58,0,0,1-1.58-1.58,1.56,1.56,0,0,1,2.36-1.34A2.91,2.91,0,0,0,22,17a1,1,0,0,0,.49-1.87,1.86,1.86,0,1,1,2.76-1.64V33.78A1.5,1.5,0,0,1,23.79,35.28Zm11.29-7.4a1.5,1.5,0,0,1-.92-.31,1,1,0,0,0-1.23,1.58,3.58,3.58,0,0,0,1.37.64,1.82,1.82,0,0,1-2.25,2.76c-.35-1-1.76-2.66-2.74-1.4a1,1,0,0,0,.3,1.38,1.54,1.54,0,0,1,.65.95,1.5,1.5,0,1,1-3,.3V13.45a1.86,1.86,0,1,1,2.76,1.64A1,1,0,0,0,30.53,17a2.91,2.91,0,0,0,1.84-1.39,1.56,1.56,0,1,1,.78,2.92,1,1,0,0,0-1,1c.19,1.74,2.6.85,3.38.07a1.68,1.68,0,0,1-.24,3.33,1,1,0,0,0-.8.42,1,1,0,0,0,0,1.09,1,1,0,0,0,.76.49A1.5,1.5,0,0,1,35.08,27.88Z" id="id_106" style="fill: rgb(241, 241, 241);"></path></g></svg>