<svg xmlns="http://www.w3.org/2000/svg" xml:space="preserve" width="7.11111in" height="7.11111in" version="1.1" style="shape-rendering:geometricPrecision; text-rendering:geometricPrecision; image-rendering:optimizeQuality; fill-rule:evenodd; clip-rule:evenodd" viewBox="0 0 7111 7111" xmlns:xlink="http://www.w3.org/1999/xlink">
<defs>
<style type="text/css">
   
    .fil0 {fill:black}
   
  </style>
</defs>
<g id="Layer_x0020_1">
<metadata id="CorelCorpID_0Corel-Layer"></metadata>
<g id="_328937752">
<g>
<path class="fil0" d="M6211 7110l-5309 0c-54,0 -97,-43 -97,-97l0 -6914c0,-54 43,-97 97,-97l3448 0c27,0 50,9 70,29l1859 1860c18,18 28,43 28,68l0 5054c1,54 -43,97 -96,97zm-5212 -194l5113 0 0 -4916 -1802 -1804 -3311 0 0 6720z" id="id_112" style="fill: rgb(241, 241, 241);"></path>
</g>
<g>
<path class="fil0" d="M6211 2056l-1686 0c0,0 -1,0 -2,0 -137,-1 -263,-119 -270,-251 0,-1 0,-4 0,-5l0 -1701c0,-39 24,-75 60,-90 36,-16 78,-7 105,20l1859 1861c28,28 36,69 21,105 -15,36 -48,61 -87,61zm-1763 -261c4,31 44,67 77,67l1450 0 -1527 -1528 0 1461z" id="id_113" style="fill: rgb(241, 241, 241);"></path>
</g>
<g>
<g>
<path class="fil0" d="M3397 2723l-2007 0c-54,0 -97,-43 -97,-97l0 -2044c0,-54 43,-97 97,-97l2007 0c54,0 97,43 97,97l0 2044c0,54 -45,97 -97,97zm-1909 -195l1811 0 0 -1849 -1811 0 0 1849z" id="id_114" style="fill: rgb(241, 241, 241);"></path>
</g>
<g>
<path class="fil0" d="M2393 1825c-289,0 -524,-235 -524,-524 0,-289 235,-523 524,-523 289,0 523,234 523,523 0,289 -234,524 -523,524zm0 -853c-182,0 -329,149 -329,329 0,181 148,329 329,329 180,0 329,-148 329,-329 0,-180 -147,-329 -329,-329z" id="id_115" style="fill: rgb(241, 241, 241);"></path>
</g>
<g>
<path class="fil0" d="M3395 2723c-40,0 -78,-25 -91,-67 -99,-293 -331,-518 -624,-611 -172,114 -400,114 -573,0 -295,92 -525,318 -624,611 -16,52 -72,78 -123,61 -51,-16 -78,-72 -61,-123 125,-370 425,-649 802,-749 31,-8 63,-1 86,18 121,98 295,98 414,0 24,-19 56,-26 86,-18 378,100 678,379 803,749 16,51 -10,105 -61,123 -13,4 -24,6 -34,6z" id="id_116" style="fill: rgb(241, 241, 241);"></path>
</g>
</g>
<g>
<g>
<path class="fil0" d="M5697 3277l-4282 0c-54,0 -97,-43 -97,-97 0,-55 43,-98 97,-98l4283 0c55,0 98,43 98,98 0,54 -45,97 -99,97z" id="id_117" style="fill: rgb(241, 241, 241);"></path>
</g>
<g>
<path class="fil0" d="M5697 3932l-4282 0c-54,0 -97,-43 -97,-97 0,-54 43,-97 97,-97l4283 0c55,0 98,43 98,97 0,54 -45,97 -99,97z" id="id_118" style="fill: rgb(241, 241, 241);"></path>
</g>
<g>
<path class="fil0" d="M5697 4589l-4282 0c-54,0 -97,-43 -97,-97 0,-55 43,-98 97,-98l4283 0c55,0 98,43 98,98 0,54 -45,97 -99,97z" id="id_119" style="fill: rgb(241, 241, 241);"></path>
</g>
<g>
<path class="fil0" d="M5697 5245l-4282 0c-54,0 -97,-43 -97,-97 0,-54 43,-97 97,-97l4283 0c55,0 98,43 98,97 0,54 -45,97 -99,97z" id="id_120" style="fill: rgb(241, 241, 241);"></path>
</g>
<g>
<path class="fil0" d="M5697 5901l-4282 0c-54,0 -97,-43 -97,-97 0,-55 43,-98 97,-98l4283 0c55,0 98,43 98,98 0,54 -45,97 -99,97z" id="id_121" style="fill: rgb(241, 241, 241);"></path>
</g>
<g>
<path class="fil0" d="M3556 6556l-2141 0c-54,0 -97,-43 -97,-97 0,-54 43,-97 97,-97l2141 0c54,0 97,43 97,97 0,54 -43,97 -97,97z" id="id_122" style="fill: rgb(241, 241, 241);"></path>
</g>
</g>
</g>
</g>
</svg>